<?xml version="1.0" encoding="utf-8"?>
<!-- Generator: Adobe Illustrator 22.0.0, SVG Export Plug-In . SVG Version: 6.00 Build 0)  -->
<svg version="1.1" id="Capa_1" xmlns="http://www.w3.org/2000/svg" xmlns:xlink="http://www.w3.org/1999/xlink" x="0px" y="0px"
	 viewBox="0 0 25.8 24.2" style="enable-background:new 0 0 25.8 24.2;" xml:space="preserve">
<style type="text/css">
	.st0{fill:#18A7FC;}
	.st1{fill:#10BB67;}
	.st2{fill:#1689FC;}
	.st3{fill:#CAE8F9;}
	.st4{fill:#136EF1;}
	.st5{fill:#B7E0F6;}
</style>
<g>
	<path class="st0" d="M15.6,15.7c0,0.1-0.1,0.2-0.2,0.2h-4.9c-0.4,0-0.7-0.3-0.7-0.7c0-0.4,0.3-0.7,0.7-0.7c0.1,0,0.1,0,0.2,0.1
		L10.4,15c-0.1,0-0.2,0.1-0.2,0.2c0,0.1,0.1,0.2,0.2,0.2h4.9C15.5,15.5,15.6,15.6,15.6,15.7z"/>
	<path class="st0" d="M10,10.8c0,0.1,0,0.1,0,0.2l-0.5-0.4L9.3,9.8c0-0.1-0.1-0.2-0.2-0.2H8c-0.1,0-0.2-0.1-0.2-0.2
		c0-0.1,0.1-0.2,0.2-0.2H9c0.3,0,0.7,0.3,0.7,0.6L10,10.8z"/>
</g>
<path class="st1" d="M16,10.7c-0.1-0.1-0.1-0.1-0.2-0.1H9.4l0.8,4.2c0,0.1,0.1,0.2,0.2,0.2h4.5c0.4,0,0.7-0.3,0.7-0.6l0.4-3.5
	C16.1,10.8,16.1,10.7,16,10.7z"/>
<g>
	<path class="st2" d="M15.6,15.7c0,0.1-0.1,0.2-0.2,0.2h-2.5v-0.5h2.5C15.5,15.5,15.6,15.6,15.6,15.7z"/>
	<path class="st2" d="M10.9,16.9c-0.4,0-0.7-0.3-0.7-0.7c0-0.4,0.3-0.7,0.7-0.7s0.7,0.3,0.7,0.7C11.7,16.6,11.3,16.9,10.9,16.9z"/>
</g>
<path class="st3" d="M10.9,15.9c-0.1,0-0.2,0.1-0.2,0.2c0,0.1,0.1,0.2,0.2,0.2c0.1,0,0.2-0.1,0.2-0.2C11.2,16,11.1,15.9,10.9,15.9z"
	/>
<path class="st4" d="M14.9,16.9c-0.4,0-0.7-0.3-0.7-0.7c0-0.4,0.3-0.7,0.7-0.7c0.4,0,0.7,0.3,0.7,0.7C15.6,16.6,15.3,16.9,14.9,16.9
	z"/>
<path class="st5" d="M14.9,15.9c-0.1,0-0.2,0.1-0.2,0.2c0,0.1,0.1,0.2,0.2,0.2c0.1,0,0.2-0.1,0.2-0.2C15.1,16,15,15.9,14.9,15.9z"/>
<path class="st1" d="M16.1,10.8l-0.4,3.5c0,0.4-0.4,0.6-0.7,0.6h-2v-4.4h2.9c0.1,0,0.1,0,0.2,0.1C16.1,10.7,16.1,10.8,16.1,10.8z"/>
<g>
	<path class="st3" d="M11.4,14c-0.1,0-0.2-0.1-0.2-0.2v-2c0-0.1,0.1-0.2,0.2-0.2c0.1,0,0.2,0.1,0.2,0.2v2C11.6,13.9,11.5,14,11.4,14
		z"/>
	<path class="st3" d="M13.1,11.8v2c0,0.1-0.1,0.2-0.2,0.2c-0.1,0-0.2-0.1-0.2-0.2v-2c0-0.1,0.1-0.2,0.2-0.2
		C13,11.5,13.1,11.6,13.1,11.8z"/>
</g>
<g>
	<path class="st5" d="M14.4,14c-0.1,0-0.2-0.1-0.2-0.2v-2c0-0.1,0.1-0.2,0.2-0.2c0.1,0,0.2,0.1,0.2,0.2v2C14.6,13.9,14.5,14,14.4,14
		z"/>
	<path class="st5" d="M12.9,14v-2.4c0.1,0,0.2,0.1,0.2,0.2v2C13.1,13.9,13,14,12.9,14z"/>
</g>
</svg>
