<?xml version="1.0" encoding="iso-8859-1"?>
<!-- Generator: Adobe Illustrator 19.0.0, SVG Export Plug-In . SVG Version: 6.00 Build 0)  -->
<svg version="1.1" id="Capa_1" xmlns="http://www.w3.org/2000/svg" xmlns:xlink="http://www.w3.org/1999/xlink" x="0px" y="0px"
	 viewBox="0 0 512 512" style="enable-background:new 0 0 512 512;" xml:space="preserve">
<g>
	<path style="fill:#18A7FC;" d="M481.958,420.986c0,8.4-6.598,14.999-14.999,14.999H164.986c-24.899,0-44.996-20.097-44.996-44.996
		c0-24.899,20.097-44.996,44.996-44.996c4.501,0,8.4,1.8,11.099,4.799l-11.099,25.199c-8.4,0-14.999,6.598-14.999,14.999
		s6.598,14.999,14.999,14.999h301.973C475.359,405.987,481.958,412.585,481.958,420.986z"/>
	<path style="fill:#18A7FC;" d="M136.187,118.311c0.901,4.501-0.298,8.4-2.699,11.399l-29.997-23.697l-8.7-47.697
		c-1.5-7.199-7.499-12.298-14.699-12.298H14.999C6.598,46.018,0,39.42,0,31.02s6.598-14.999,14.999-14.999h65.093
		c21.599,0,40.197,15.6,44.097,36.896L136.187,118.311z"/>
</g>
<path style="fill:#10BB67;" d="M508.355,111.112c-2.999-3.3-7.199-5.099-11.399-5.099H103.491l46.796,257.678
	c1.199,7.199,7.499,12.298,14.699,12.298h275.576c22.798,0,41.997-17.098,44.696-39.597l26.698-213.581
	C512.255,118.611,511.054,114.412,508.355,111.112z"/>
<g>
	<path style="fill:#1689FC;" d="M481.958,420.986c0,8.4-6.598,14.999-14.999,14.999H315.972v-29.997h150.987
		C475.359,405.987,481.958,412.585,481.958,420.986z"/>
	<path style="fill:#1689FC;" d="M194.983,495.979c-24.812,0-44.996-20.184-44.996-44.996c0-24.812,20.184-44.996,44.996-44.996
		s44.996,20.184,44.996,44.996C239.979,475.795,219.795,495.979,194.983,495.979z"/>
</g>
<path style="fill:#CAE8F9;" d="M194.983,435.984c-8.275,0-14.999,6.723-14.999,14.999c0,8.275,6.723,14.999,14.999,14.999
	c8.275,0,14.999-6.723,14.999-14.999C209.982,442.708,203.258,435.984,194.983,435.984z"/>
<path style="fill:#136EF1;" d="M436.962,495.979c-24.812,0-44.996-20.184-44.996-44.996c0-24.812,20.184-44.996,44.996-44.996
	c24.812,0,44.996,20.184,44.996,44.996C481.958,475.795,461.773,495.979,436.962,495.979z"/>
<path style="fill:#B7E0F6;" d="M436.962,435.984c-8.275,0-14.999,6.723-14.999,14.999c0,8.275,6.723,14.999,14.999,14.999
	s14.999-6.723,14.999-14.999C451.96,442.708,445.237,435.984,436.962,435.984z"/>
<path style="fill:#10BB67;" d="M511.955,122.811l-26.698,213.581c-2.699,22.498-21.897,39.597-44.696,39.597H315.972V106.012
	h180.984c4.2,0,8.4,1.8,11.399,5.099C511.054,114.412,512.255,118.611,511.955,122.811z"/>
<g>
	<path style="fill:#CAE8F9;" d="M224.98,315.995c-8.29,0-14.999-6.708-14.999-14.999V181.007c0-8.29,6.708-14.999,14.999-14.999
		c8.29,0,14.999,6.708,14.999,14.999v119.989C239.979,309.286,233.271,315.995,224.98,315.995z"/>
	<path style="fill:#CAE8F9;" d="M330.971,181.007v119.989c0,8.4-6.598,14.999-14.999,14.999s-14.999-6.598-14.999-14.999V181.007
		c0-8.4,6.598-14.999,14.999-14.999S330.971,172.606,330.971,181.007z"/>
</g>
<g>
	<path style="fill:#B7E0F6;" d="M406.964,315.995c-8.29,0-14.999-6.708-14.999-14.999V181.007c0-8.29,6.708-14.999,14.999-14.999
		s14.999,6.708,14.999,14.999v119.989C421.963,309.286,415.254,315.995,406.964,315.995z"/>
	<path style="fill:#B7E0F6;" d="M315.972,315.995V166.008c8.4,0,14.999,6.598,14.999,14.999v119.989
		C330.971,309.395,324.372,315.995,315.972,315.995z"/>
</g>
<g>
</g>
<g>
</g>
<g>
</g>
<g>
</g>
<g>
</g>
<g>
</g>
<g>
</g>
<g>
</g>
<g>
</g>
<g>
</g>
<g>
</g>
<g>
</g>
<g>
</g>
<g>
</g>
<g>
</g>
</svg>
