<?xml version="1.0" encoding="utf-8"?>
<!-- Generator: Adobe Illustrator 22.0.0, SVG Export Plug-In . SVG Version: 6.00 Build 0)  -->
<svg version="1.1" xmlns="http://www.w3.org/2000/svg" xmlns:xlink="http://www.w3.org/1999/xlink" x="0px" y="0px"
	 viewBox="0 0 400 87.3" style="enable-background:new 0 0 400 87.3;" xml:space="preserve">
<style type="text/css">
	.st0{fill:#15D4AC;}
	.st1{fill:#95ECD7;}
</style>
<g id="svg">
	<g id="svgg">
		<path id="path0" class="st0" d="M166.7,4.3c-0.3,0.1-0.7,0.2-1,0.2c-0.3,0-0.5,0.1-0.5,0.2c0,0.1-0.2,0.3-0.5,0.4
			c-0.7,0.4-35.3,35-35.3,35.3c0,0.2-0.1,0.3-0.2,0.4c-0.1,0.1-0.3,0.4-0.4,0.7c-0.1,0.3-0.2,0.8-0.3,1.1c-0.1,0.2-0.2,0.7-0.2,1
			c0,0.3,0.1,0.8,0.2,1c0.1,0.2,0.3,0.7,0.3,1.1c0.1,0.3,0.2,0.7,0.4,0.8c0.1,0.1,0.2,0.3,0.2,0.4c0,0.3,34.2,34.6,34.5,34.6
			c0.1,0,0.2,0.1,0.2,0.2c0.1,0.1,0.2,0.2,0.3,0.2c0.1,0,0.4,0.2,0.5,0.3c0.2,0.2,0.4,0.3,0.6,0.3c0.2,0,0.4,0.1,0.5,0.2
			c0.9,0.9,4.7,0,6.1-1.4c0.6-0.7,0.7-0.8,0.7-1c0-0.1,0.2-0.4,0.4-0.6c0.6-0.7,0.6-4.4,0-5.2c-0.2-0.3-0.4-0.6-0.4-0.7
			s-0.1-0.2-0.2-0.2c-0.1,0-0.2-0.1-0.3-0.2c-0.1-0.3-2.5-2.8-2.7-2.8c-0.1,0-0.2-0.1-0.2-0.2c0-0.2-0.8-1-1-1
			c-0.1,0-0.2-0.1-0.2-0.2c0-0.2-0.8-1-1-1c-0.1,0-0.2-0.1-0.2-0.2c0-0.1-0.3-0.4-0.6-0.6c-0.3-0.2-0.6-0.5-0.6-0.6
			c0-0.1-0.1-0.2-0.2-0.2c-0.2,0-1-0.8-1-1c0-0.1-0.1-0.2-0.2-0.2c-0.2,0-1-0.8-1-1c0-0.1-0.1-0.2-0.2-0.2
			c-0.4,0-20.7-20.5-20.7-20.8c0-0.3,4.2-4.5,14.8-15.2c16.3-16.3,15.1-15.1,15.3-15.7c0.1-0.2,0.2-0.5,0.4-0.6
			c0.5-0.3,0.4-4.4-0.1-5c-0.2-0.3-0.4-0.6-0.4-0.7c0-0.1-0.1-0.3-0.2-0.3c-0.1-0.1-0.2-0.2-0.2-0.4c0-0.1-0.1-0.3-0.3-0.3
			c-0.1,0-0.3-0.1-0.3-0.2c-0.1-0.1-0.3-0.3-0.6-0.4c-0.3-0.1-0.5-0.2-0.5-0.3c0-0.1-0.2-0.2-0.4-0.2c-0.2,0-0.7-0.1-1-0.2
			C168.5,4,167.4,4,166.7,4.3 M202.4,4.3c-0.3,0.1-0.7,0.2-0.9,0.2c-2,0-4,3.8-3.5,6.6c0.3,1.7,0,1.4,15.7,17.1
			c8.2,8.2,15,15.2,15.1,15.4c0.1,0.4-4,4.8-4.4,4.8c-0.1,0-0.2,0.1-0.2,0.2c0,0.2-0.8,1-1,1c-0.1,0-0.2,0.1-0.2,0.2
			c0,0.2-2,2.1-2.2,2.1c-0.1,0-0.1,0.1-0.1,0.2c0,0.2-0.8,1-1,1c-0.1,0-0.2,0.1-0.2,0.2c0,0.2-2.5,2.7-2.7,2.7
			c-0.1,0-0.2,0.1-0.2,0.1c0,0.2-0.8,1-1,1c-0.1,0-0.2,0.1-0.2,0.2c0,0.1-0.3,0.4-0.6,0.6s-0.6,0.5-0.6,0.6c0,0.1-0.3,0.3-0.6,0.6
			c-0.3,0.2-0.7,0.7-1,1c-0.2,0.3-0.5,0.5-0.5,0.6c-0.1,0-12.8,12.7-13.3,13.2c-0.1,0.1-0.3,0.4-0.4,0.7c-0.1,0.2-0.2,0.4-0.3,0.4
			c-0.6,0-0.5,4.7,0.1,5.2c0.1,0.1,0.2,0.3,0.2,0.4c0,0.4,1.5,1.7,2.3,2.1c0.5,0.2,0.8,0.4,0.8,0.5c0,0.6,4.2-0.1,5-0.8
			c0.1-0.1,0.3-0.2,0.4-0.2c0.1,0,0.3-0.1,0.3-0.2c0.1-0.1,0.2-0.2,0.4-0.2c0.1,0,0.3-0.1,0.3-0.2c0-0.2,3.1-3.3,3.3-3.3
			c0.1,0,0.2-0.1,0.2-0.2c0-0.1,0.1-0.2,0.2-0.2c0.1,0,0.2-0.1,0.2-0.1c0-0.2,0.8-1,0.9-1c0.1,0,0.3-0.3,0.6-0.6
			c0.2-0.3,0.5-0.6,0.5-0.6c0.2,0,1-0.8,1-1c0-0.1,0.1-0.2,0.2-0.2c0.1,0,0.2-0.1,0.2-0.2c0-0.2,0.8-1,1-1c0.1,0,0.2-0.1,0.2-0.1
			c0-0.2,2-2.2,2.2-2.2c0.1,0,0.2-0.1,0.2-0.2c0-0.2,0.8-1,1-1c0.1,0,0.2-0.1,0.2-0.2c0-0.1,0.1-0.3,0.2-0.3c0.1,0,0.4-0.3,0.6-0.6
			c0.2-0.3,0.5-0.6,0.5-0.6c0.2,0,2.1-2,2.1-2.2c0-0.1,0.1-0.1,0.2-0.1c0.1,0,0.2-0.1,0.2-0.2c0-0.1,0.1-0.3,0.3-0.3
			c0.2-0.1,0.3-0.2,0.3-0.3c0-0.1,0.1-0.2,0.2-0.2c0.1,0,0.2-0.1,0.2-0.1c0-0.2,2-2.2,2.2-2.2c0.1,0,0.3-0.3,0.5-0.6
			c0.2-0.3,0.5-0.6,0.6-0.6c0.1,0,0.2-0.1,0.2-0.2c0-0.2,0.8-1,1-1c0.1,0,0.1-0.1,0.1-0.1c0-0.2,1.3-1.5,1.5-1.5
			c0.1,0,0.1-0.1,0.1-0.1c0-0.1,0.8-1,0.9-1c0.1,0,3.3-3.2,3.3-3.4c0-0.1,0.1-0.1,0.1-0.1c0.2,0,1.5-1.3,1.5-1.5
			c0-0.1,0.3-0.3,0.6-0.5c0.3-0.2,0.6-0.5,0.6-0.5c0-0.1,1.3-1.5,1.4-1.5c0.1,0,1.4-1.4,1.4-1.5c0-0.1,0.1-0.2,0.3-0.3
			c0.1-0.1,0.3-0.4,0.4-0.6s0.2-0.5,0.3-0.6c0.5-0.8,0.8-3.2,0.5-3.6c-0.1-0.1-0.2-0.5-0.3-0.9c-0.1-0.4-0.2-0.9-0.4-1
			c-0.1-0.2-0.4-0.5-0.5-0.7c-0.5-0.8-35-35-35.3-35c-0.1,0-0.2-0.1-0.3-0.3c-0.1-0.1-0.3-0.2-0.5-0.2s-0.7-0.1-1-0.2
			C204.2,4,203.1,4,202.4,4.3 M64.6,30.1c-0.3,0.7,0,23,0.3,23.4c0.2,0.2,0.3,0.5,0.3,0.6c0,0.5,1.8,2.5,2.3,2.5
			c0.1,0,0.3,0.1,0.4,0.2c0.1,0.1,0.7,0.3,1.2,0.4c0.5,0.1,1,0.3,1.1,0.4c0.2,0.3,10.4,0.2,10.8-0.1c0.2-0.1,0.7-0.3,1.2-0.4
			c0.4-0.1,0.8-0.2,0.8-0.2c0-0.1,0.2-0.2,0.5-0.3s0.5-0.3,0.5-0.3c0-0.1,0.2-0.2,0.3-0.2c0.2-0.1,0.3-0.2,0.3-0.3
			c0-0.1,0.1-0.3,0.2-0.3c0.1-0.1,0.2-0.2,0.2-0.3c0-0.1,0.2-0.4,0.3-0.6c0.2-0.2,0.3-0.6,0.3-0.8s0.1-0.5,0.2-0.7
			c0.4-0.4,0.4-9.7,0-10.2c-0.1-0.2-0.2-0.5-0.2-0.6c0-0.9-1.4-2.4-3.1-3.3l-0.8-0.4h-5.2h-5.2l0,1.8c-0.1,2.3-0.5,2.1,4.5,2.1
			c6.2,0,6-0.2,6.1,5.5l0,4.1l-0.8,0.7l-0.8,0.7h-5.2c-4.4,0-5.2,0-5.2-0.2c-0.1-0.1-0.2-0.2-0.3-0.2c-0.1,0-0.4-0.2-0.6-0.4
			l-0.4-0.4V41V29.9h-2.1C65.1,29.9,64.6,29.9,64.6,30.1 M1,32c0,0.1,0.1,0.5,0.2,0.7c0.1,0.2,0.3,1,0.3,1.8
			c0.1,0.7,0.2,1.5,0.4,1.8c0.1,0.3,0.2,0.9,0.2,1.5c0,0.6,0.1,1.2,0.2,1.4c0.1,0.2,0.3,1,0.3,1.7c0.1,0.8,0.2,1.6,0.4,2
			c0.1,0.3,0.2,0.9,0.2,1.4s0.1,1.1,0.2,1.4c0.1,0.3,0.3,1.1,0.3,1.8C4,48,4.1,48.8,4.3,49.1s0.2,1,0.2,1.6c0,0.6,0.1,1.2,0.2,1.4
			c0.1,0.2,0.3,1,0.3,1.7c0.1,0.7,0.2,1.5,0.3,1.8c0.1,0.2,0.2,0.7,0.2,1c0,2.1,3.7,1.7,4.3-0.4c0.1-0.2,0.2-0.4,0.3-0.5
			c0.1,0,0.2-0.2,0.2-0.3c0-0.1,0.3-0.6,0.6-1.1c0.3-0.4,0.6-1,0.7-1.2s0.2-0.4,0.3-0.4c0.1,0,0.2-0.1,0.2-0.2c0-0.1,0.2-0.5,0.5-1
			c0.3-0.4,0.6-1,0.7-1.2c0.2-0.5,0.4-0.7,1.1-1.8c0.3-0.4,0.6-0.9,0.6-1.1s0.2-0.4,0.3-0.4c0.1,0,0.2-0.1,0.2-0.2s0.1-0.3,0.2-0.5
			c0.1-0.1,0.3-0.4,0.4-0.7c0.1-0.3,0.3-0.5,0.4-0.5c0.1,0,0.2-0.1,0.2-0.2c0-0.4,1.4-2.3,1.7-2.3c0.3,0,1,0.7,1,1.1
			c0,0.1,0.1,0.2,0.2,0.2c0.1,0,0.3,0.2,0.4,0.5c0.1,0.3,0.4,0.8,0.6,1c0.2,0.3,0.4,0.7,0.5,1s0.2,0.5,0.3,0.5
			c0.1,0,0.2,0.2,0.3,0.4c0.1,0.3,0.7,1.3,0.9,1.5c0.1,0.1,0.6,1,0.8,1.5c0.1,0.2,0.3,0.5,0.4,0.5c0.1,0.1,0.2,0.2,0.2,0.4
			c0,0.2,0.1,0.4,0.2,0.4c0.1,0.1,0.2,0.2,0.2,0.3c0,0.1,0.1,0.3,0.2,0.5c0.1,0.1,0.3,0.4,0.4,0.6c0.5,1,0.7,1.3,0.9,1.3
			c0.1,0,0.2,0.2,0.3,0.5c0.1,0.3,0.2,0.5,0.3,0.6c0.1,0.1,0.2,0.2,0.2,0.3c0,0.1,0.3,0.6,0.6,1.1l0.6,0.9l1.1,0
			c1.2,0,1.9-0.5,1.9-1.2c0-0.2,0.1-0.5,0.2-0.8c0.1-0.2,0.3-1.1,0.3-1.8c0.1-0.8,0.2-1.5,0.4-1.7c0.2-0.2,0.2-0.7,0.2-1.4
			c0-0.6,0.1-1.3,0.2-1.7c0.1-0.3,0.3-1.1,0.3-1.8c0.1-0.6,0.2-1.3,0.3-1.4c0.1-0.1,0.2-0.9,0.3-1.7c0.1-0.8,0.2-1.6,0.3-1.7
			c0.1-0.1,0.2-0.6,0.2-1.2c0-0.5,0.1-1.2,0.2-1.6c0.1-0.3,0.3-1.3,0.4-2.1c0.1-0.8,0.2-1.5,0.3-1.6c0.1,0,0.2-0.5,0.2-1
			c0-0.5,0.1-1.2,0.2-1.6c0.1-0.4,0.2-0.9,0.3-1.3l0.1-0.6h-2.1h-2.1l-0.2,0.9c-0.1,0.5-0.3,1.4-0.4,2c-0.1,0.6-0.3,1.5-0.4,1.9
			s-0.3,1.3-0.3,1.9c0,0.6-0.2,1.2-0.3,1.4c-0.1,0.2-0.2,0.8-0.3,1.5c-0.1,0.6-0.2,1.4-0.3,1.7c-0.1,0.3-0.3,1.1-0.3,1.8
			c0,0.7-0.2,1.3-0.3,1.4c-0.1,0.1-0.2,0.8-0.3,1.4c-0.1,0.7-0.2,1.2-0.3,1.3c-0.3,0.2-0.9-0.1-1.1-0.6c-0.1-0.3-0.2-0.5-0.3-0.5
			s-0.2-0.2-0.3-0.4s-0.4-0.7-0.7-1.2c-0.3-0.4-0.6-0.9-0.6-1.1c0-0.1-0.1-0.3-0.2-0.3c-0.1,0-0.3-0.2-0.4-0.5
			c-0.1-0.3-0.4-0.7-0.6-1c-0.2-0.3-0.4-0.7-0.5-0.9c-0.1-0.2-0.2-0.5-0.3-0.6c-0.3-0.4-1.5-2.2-1.5-2.3c0-0.1-0.6-1-1-1.4
			c-0.1-0.1-0.2-0.3-0.2-0.4c0-0.1-0.3-0.5-0.6-0.9c-1.3-1.5-3.3-1-4.3,1.2c-0.1,0.2-0.2,0.4-0.3,0.4s-0.2,0.1-0.2,0.3
			c0,0.2-0.2,0.4-0.3,0.6s-0.3,0.4-0.3,0.5c0,0.1-0.1,0.3-0.2,0.3c-0.1,0.1-0.2,0.2-0.2,0.4s-0.1,0.4-0.3,0.6
			c-0.2,0.2-0.3,0.4-0.3,0.5c0,0.1-0.4,0.7-0.8,1.3c-0.9,1.4-1.1,1.7-1.4,2.3c-0.1,0.2-0.3,0.5-0.4,0.5c-0.2,0.1-0.5,0.7-0.8,1.4
			c-0.1,0.3-0.3,0.5-0.4,0.5c-0.1,0-0.2,0.2-0.3,0.5C9,49.7,8.2,48.8,8.2,47c0-0.5-0.1-1.1-0.2-1.3c-0.1-0.2-0.3-0.9-0.3-1.5
			c-0.1-0.6-0.2-1.5-0.3-1.8C7.1,41.9,7,41.2,7,40.6c0-0.6-0.1-1.1-0.3-1.3c-0.2-0.2-0.2-0.7-0.2-1.3c0-0.5-0.1-1.2-0.3-1.6
			c-0.1-0.3-0.3-1.2-0.4-1.9c-0.1-0.7-0.2-1.4-0.3-1.6c-0.1-0.2-0.2-0.5-0.2-0.8v-0.5H3.2C1.3,31.7,1,31.8,1,32 M267.1,33.3
			c-0.4,0-0.9,0.2-1,0.3c-0.1,0.1-0.3,0.2-0.5,0.2c-0.9,0-2.6,2.3-3,4c-0.3,1.3-0.5,14.5-0.2,14.5c0.1,0,0.2,0.5,0.3,1.2
			c0.1,0.8,0.2,1.3,0.4,1.5c0.2,0.2,0.3,0.5,0.3,0.6c0,0.3,1.3,1.5,1.8,1.7c0.2,0.1,0.5,0.2,0.6,0.4s0.4,0.2,0.7,0.2
			c0.3,0,0.7,0.1,1,0.2c0.4,0.2,1.8,0.2,9.1,0.2h8.6v-2.1v-2.1h-8.6c-9.3,0-9.2,0-9.8-0.9l-0.4-0.6v-6.9c0-9.7-1.2-8.7,10.3-8.7h8.5
			v-1.8c0-1.5,0-1.8-0.3-1.9C284.8,33.2,268.5,33.2,267.1,33.3 M362.9,33.3c-0.1,0.1-0.1,1.3-0.1,2.8c0,3.5,0.1,3.4-3.7,3.5l-2.6,0
			v1.9v1.9l2.8,0c3.8,0.1,3.4-0.9,3.4,7.8v7.1h1.9h1.9v-7.1c0-5.4,0-7.2,0.2-7.4c0.2-0.2,0.7-0.3,4-0.3l3.8,0v-1.9v-1.9l-3.7-0.1
			c-4.8-0.1-4.4,0.2-4.5-3.4l0-2.9l-1.8,0C363.8,33.2,363,33.3,362.9,33.3 M43.7,38.5c-1.5,0.2-3.7,2.4-4,3.8
			c-0.1,0.3-0.2,0.8-0.3,1c-0.7,1-0.1,10.4,0.7,11.2c0.1,0.1,0.2,0.3,0.2,0.4c0,0.3,1.6,1.7,1.9,1.7c0.1,0,0.3,0.1,0.4,0.2
			c0,0.1,0.4,0.3,0.9,0.3c0.4,0.1,0.9,0.2,1.1,0.4c0.3,0.2,1.3,0.2,4.8,0.2h4.4l0-2.1l0-2.1l-4.7-0.1l-4.7-0.1L43.9,53l-0.5-0.4V48
			c0-6.3-0.5-5.8,6.5-5.8h5.1l0.7,0.5c0.7,0.5,0.8,0.7,0.7,2.3c-0.1,0.9-0.7,1.7-1.4,1.7c-0.2,0-0.5,0.1-0.6,0.2
			c-0.1,0.1-1.7,0.2-4.2,0.2c-4.8,0-4.3-0.2-4.3,2.2v1.7h5c4,0,5.1,0,5.5-0.2c0.3-0.1,0.7-0.3,0.9-0.4c0.9-0.4,2.3-1.7,2.3-2.1
			c0-0.1,0.1-0.3,0.2-0.4c0.1-0.1,0.3-0.5,0.3-0.8c0.1-0.3,0.2-0.8,0.3-0.9c0.3-0.5,0.3-2.6,0-2.9c-0.1-0.1-0.3-0.5-0.3-0.8
			c-0.2-1.2-1.3-2.4-3-3.4l-0.8-0.5l-6.1,0C47,38.4,44,38.5,43.7,38.5 M94.2,38.5c-0.3,0-0.8,0.2-1,0.4c-0.2,0.2-0.5,0.3-0.6,0.3
			c-0.2,0-1.5,1.2-1.5,1.5c0,0.1-0.1,0.2-0.2,0.3c-0.7,0.4-0.7,4.9,0,5.3c0.1,0.1,0.2,0.2,0.2,0.4c0,0.2,1,1.2,1.8,1.8
			c0.6,0.5,3,0.7,7.3,0.8l4.5,0.1l0.4,0.5c0.8,1,0.7,2.1-0.3,3.1l-0.7,0.6l-6.8,0l-6.8,0v2.1v2.1l6.7,0c5.8,0,6.8,0,7.1-0.2
			c0.2-0.1,0.7-0.3,1.2-0.4c0.4-0.1,0.9-0.2,1-0.3c0.1-0.1,0.3-0.2,0.4-0.2c0.3,0,1.5-1.3,1.8-1.8c0.1-0.3,0.3-0.5,0.4-0.5
			c0.1,0,0.2-0.2,0.2-0.5s0.1-0.8,0.2-1.1c0.3-0.7,0.3-2.5,0.1-2.6c-0.1-0.1-0.2-0.5-0.3-0.9c-0.1-0.5-0.2-0.9-0.3-1
			c-0.1-0.1-0.2-0.3-0.2-0.4c0-0.3-1.4-1.8-1.6-1.8c-0.1,0-0.2-0.1-0.3-0.2c-0.1-0.1-0.2-0.2-0.3-0.2c-0.1,0-0.5-0.2-0.8-0.3
			c-0.6-0.3-0.9-0.3-5.6-0.3h-5l-0.4-0.5c-0.6-0.7-0.5-1,0-1.5l0.5-0.4h5.8c3.2,0,5.9,0,6-0.1c0.3-0.1,0.4-3.4,0.1-3.7
			C106.9,38.4,95.7,38.3,94.2,38.5 M294.5,39.7c-0.7,0.1-1.7,0.5-2.3,0.9c-0.7,0.5-1.5,1.5-1.9,2.1l-0.4,0.7l-0.1,7.5l-0.1,7.5h1.9
			h1.9v-6.5c0-7.1,0-7.4,0.9-7.9c0.2-0.1,0.4-0.2,0.4-0.3s2.4-0.1,5.3-0.1c2.9,0,5.4,0,5.6-0.1c0.3-0.1,0.4-3.4,0.1-3.7
			C305.7,39.5,296,39.5,294.5,39.7 M314.2,39.7c-0.6,0-1.1,0.2-1.3,0.4c-0.2,0.2-0.5,0.3-0.6,0.3c-0.3,0-2,1.8-2,2.1
			c0,0.1-0.2,0.4-0.4,0.6c-0.4,0.4-0.4,0.4-0.4,5.6V54l0.4,0.8c0.8,1.5,2.5,3.1,3.5,3.1c0.2,0,0.7,0.1,0.9,0.2
			c0.4,0.2,1.3,0.2,5,0.2h4.5l0-1.9l0-1.9l-4.1,0c-2.4,0-4.1-0.1-4.2-0.2c-0.1-0.1-0.3-0.2-0.5-0.2c-0.5,0-0.9-0.2-0.9-0.4
			c0-0.1-0.2-0.3-0.3-0.5c-0.3-0.3-0.3-0.5-0.3-4.6l0-4.3L314,44l0.6-0.6h5.2h5.2l0.4,0.5c0.8,0.9,0.9,1,0.9,1.8
			c0,0.8-0.1,0.9-0.9,1.8l-0.5,0.5l-4.5,0l-4.5,0v1.8v1.8h5c5,0,5,0,5.8-0.4c1.2-0.6,2.5-1.9,2.8-2.9c0.1-0.2,0.2-0.6,0.4-0.7
			c0.3-0.5,0.3-3.5,0-3.8c-0.1-0.1-0.2-0.3-0.2-0.4c0-0.6-1.3-2.5-1.7-2.5c-0.1,0-0.2-0.1-0.2-0.2c0-0.1-0.4-0.4-1-0.6l-1-0.5
			l-5.4,0C317.5,39.6,314.7,39.6,314.2,39.7 M337.4,39.7c-0.1,0.1-0.2,0.8-0.2,1.9v1.7l5.5,0c5.9,0.1,6.3,0.1,6.3,0.9
			c0,0.1,0.1,0.3,0.2,0.4c0.2,0.2,0.2,0.8,0.2,4.1c0,4.4-0.2,5.1-1.3,5.3c-0.3,0.1-0.5,0.2-0.6,0.2c-0.1,0.2-9,0.2-9.2,0
			c-0.1-0.1-0.3-0.2-0.5-0.2c-1.5,0-2-2.5-0.7-3.7c0.9-0.8,1-0.8,5.8-0.8h4.1l0-1.8l0-1.8l-5,0c-4.1,0-5,0-5.2,0.2
			c-0.1,0.1-0.5,0.3-0.7,0.4c-0.3,0.1-0.5,0.2-0.5,0.3c0,0.1-0.2,0.2-0.4,0.3c-0.5,0.2-1.8,1.6-1.8,2.1c0,0.1-0.1,0.3-0.3,0.5
			c-0.4,0.4-0.4,4.6,0,5c0.1,0.2,0.3,0.4,0.3,0.5c0,0.7,2.4,2.6,3.5,2.7c0.4,0.1,0.8,0.2,0.8,0.3c0.1,0.2,10.5,0.2,10.6,0
			c0.1-0.1,0.5-0.2,0.9-0.3c0.5-0.1,0.9-0.2,1.1-0.4c0.2-0.2,0.3-0.3,0.4-0.3c0.2,0,1.4-1.2,1.5-1.5c0.1-0.2,0.2-0.3,0.3-0.3
			c0.1,0,0.2-0.2,0.2-0.4s0.1-0.6,0.3-0.8c0.3-0.4,0.3-0.9,0.3-5.3c0-4.4,0-5-0.3-5.3c-0.2-0.2-0.3-0.6-0.3-0.8c0-0.2-0.3-0.6-0.6-1
			c-0.3-0.4-0.6-0.7-0.6-0.8c0-0.1-0.1-0.1-0.3-0.1c-0.1,0-0.3-0.1-0.4-0.2c-0.1-0.1-0.2-0.2-0.3-0.2c-0.1,0-0.5-0.2-0.9-0.4
			C348.9,39.6,337.8,39.3,337.4,39.7 M382.8,39.7c-0.5,0.1-1.1,0.2-1.3,0.4c-0.2,0.2-0.4,0.3-0.5,0.3c-0.3,0-2,1.9-2,2.2
			c0,0.2-0.1,0.4-0.2,0.5c-0.8,0.6-0.8,11.3,0,11.9c0.1,0.1,0.2,0.3,0.2,0.4c0,0.1,0.1,0.3,0.3,0.5c0.2,0.2,0.3,0.4,0.3,0.5
			c0,0.4,2,1.5,2.8,1.7c0.4,0.1,0.8,0.2,0.8,0.3c0,0.1,1.6,0.2,4.6,0.2h4.6v-1.9v-1.9h-4.2c-2.6,0-4.2-0.1-4.3-0.2
			c-0.1-0.1-0.3-0.2-0.5-0.2c-0.2,0-0.6-0.2-0.9-0.5l-0.5-0.5v-4.3v-4.3l0.5-0.6l0.5-0.6l5.2,0c5.5-0.1,6.3,0.1,6.3,0.9
			c0,0.1,0.1,0.3,0.3,0.4c0.1,0.1,0.2,0.5,0.2,0.8c0,0.3-0.1,0.7-0.2,0.9c-0.1,0.1-0.2,0.3-0.2,0.4s-0.2,0.3-0.5,0.6l-0.5,0.5h-4.4
			h-4.4v1.8v1.8h5c4.8,0,5,0,5.7-0.4c0.9-0.5,2.4-1.8,2.4-2.1c0-0.1,0.1-0.3,0.2-0.3c0.1,0,0.3-0.4,0.3-0.7c0.1-0.4,0.2-0.7,0.3-0.7
			c0.1,0,0.2-0.6,0.2-1.7c0-1.6-0.1-2-0.8-3.1c-0.1-0.1-0.2-0.4-0.3-0.6s-0.3-0.4-0.4-0.5c-0.1-0.1-0.3-0.2-0.3-0.3
			s-0.1-0.3-0.3-0.4c-0.2-0.1-0.8-0.4-1.3-0.7l-1-0.5l-5.4,0C386.2,39.6,383.3,39.6,382.8,39.7"/>
		<path id="path2" class="st1" d="M165.8,4.1c-0.9,0.4-1.6,0.8-2,1.2c-2.6,2.5-34.5,34.4-34.8,34.9c-0.7,1.1-1,1.9-1,2.5
			c0,0.4,0,0.5,0.1,0.1c0.4-2.1,0.1-1.8,18.8-20.5c16.9-16.9,17.7-17.6,19.2-18.1c5.4-1.6,9.6,3.8,7,8.8c-0.3,0.6-4.4,4.7-15.2,15.5
			c-8.1,8.1-14.8,14.9-14.9,15.1c-0.1,0.4,0.9,1.4,14.7,15.2c9.6,9.6,15,15.1,15.3,15.6c2.3,4.2-0.5,9.1-5.3,9.1
			c-2.8,0-1.4,1.2-21.1-18.5c-18.8-18.8-18.3-18.3-18.7-20.4c-0.1-0.3-0.1-0.3-0.1,0.1c-0.1,1.7-0.4,1.3,18.1,19.9
			c20.6,20.6,18.9,19.1,21.8,19.1c2.8,0,5.3-1.7,5.8-4c0.1-0.3,0.2-0.6,0.3-0.7c0.3-0.4,0.2-2.5-0.1-3.4c-0.5-1.4-1.1-2.1-6.9-7.9
			c-15.9-15.8-23.9-23.8-23.9-23.9c0-0.1,6.7-6.8,14.8-14.9c15.5-15.5,15.4-15.4,16-17.4C175.4,6.8,170.3,2.2,165.8,4.1 M201.4,4.1
			c-2.9,1.2-4.9,5.3-3.8,7.5c0.1,0.3,0.2,0.6,0.2,0.8c0,0.6,1,1.6,15.6,16.2c8.2,8.2,14.9,15.1,14.9,15.2s-6.6,6.8-14.6,14.7
			c-17.1,17-16.4,16.2-16.4,18.9c0,5.7,6.6,8.3,10.9,4.3c4.5-4.2,34.2-34.2,34.6-34.8c0.8-1.6,0.9-2,0.9-3.3c0-2.7,1.3-1.2-18.5-21
			c-16.8-16.8-18.1-18-19.4-18.5C204.8,3.6,202.4,3.7,201.4,4.1 M205.6,4.2c1.4,0.5,1.4,0.4,12.3,11.4c5.6,5.6,13.3,13.2,17.1,17
			c3.8,3.8,7.1,7.2,7.4,7.6c1.4,2.1,1.4,4.1,0,6.9c-0.5,1-35,35.2-36.1,35.8c-4.7,2.5-10-2.1-8.5-7.3c0.4-1.5-0.9-0.1,24.7-25.6
			c4.3-4.3,6-6,5.9-6.3c0-0.2-6.8-7-15-15.3s-15-15.1-15.1-15.3c-1.6-3.1-0.9-6,2-8.4C201.4,3.9,204,3.7,205.6,4.2 M64.4,29.5
			L64,29.7l0,10.9c0,11.5,0.1,12.5,0.8,13.9c0.5,0.9,1.9,2.4,2.7,2.7c1.3,0.6,1.8,0.8,2.4,0.8c0.4,0,0.5,0,0.1-0.1
			c-3.1-0.5-5.2-2.7-5.7-5.8c-0.3-2.3-0.2-22,0.1-22.4c0.2-0.2,0.6-0.3,2.4-0.2l2.1,0l0,11.1c0.1,14-0.8,12.4,6.3,12.4
			c6.8,0,6.4,0.4,6.4-5.2c0-5.6,0.3-5.2-5.9-5.2c-5.2,0-4.8,0.2-4.8-2.5l0-2.1l4.7-0.1c6.9-0.1,8.5,0.5,10,3.6l0.7,1.3v4.9
			c0,4.4,0,5-0.3,5.5c-0.2,0.3-0.3,0.6-0.3,0.8c0,0.1,0.2-0.1,0.4-0.5c0.6-1.2,0.6-10.2,0-11.4c-0.2-0.4-0.4-0.8-0.4-0.9
			c0-0.7-2.9-3.1-3.8-3.1c-0.1,0-0.3-0.1-0.4-0.2c-0.1-0.1-2-0.2-5.4-0.1l-5.2,0l0,2.2c-0.1,2.9-0.6,2.7,4.9,2.7
			c6.2,0.1,5.7-0.4,5.7,5.3V52l-0.4,0.4l-0.4,0.4h-5.2h-5.2l-0.5-0.4L69.2,52V40.9c0-7.3-0.1-11.2-0.2-11.4
			C68.7,29.1,65,29.1,64.4,29.5 M0.8,31.6c-0.1,0.2-0.1,0.4-0.1,0.4c0,0,0.1-0.1,0.2-0.3c0.1-0.4,4-0.5,4.5-0.1
			C5.7,31.8,6,33.1,6,33.9c0,0.3,0.1,0.8,0.2,1.1c0.1,0.3,0.2,0.8,0.3,1.3c0.1,0.8,0.1,0.8,0.1-0.2c0-0.6-0.1-1.1-0.2-1.2
			c-0.1-0.1-0.2-0.8-0.3-1.4c-0.2-2.1-0.2-2.2-3-2.2C1.1,31.2,1,31.2,0.8,31.6 M31.5,31.5c-0.4,0.4-0.6,1.3-0.6,2.1
			c0,0.7,0,0.7,0.2-0.2c0.1-0.5,0.3-1.1,0.4-1.5l0.2-0.6h2.1c2.6,0,2.8,0.2,2,3c-0.1,0.3-0.2,0.8-0.2,1.2c0,0.3,0,0.4,0.1,0.3
			c0-0.2,0.2-0.9,0.3-1.5c0.4-2.1,0.5-2.7,0.1-2.9C35.4,31.1,31.7,31.2,31.5,31.5 M0.8,32.8c0,0.3,0.1,0.9,0.2,1.5
			c0.1,0.6,0.3,1.5,0.4,2.1c0.6,3.8,0.9,5.5,1.3,7.1C2.9,44.1,3,44.8,3.1,45s0.1,0,0.1-0.3c0-0.4-0.1-1-0.2-1.3
			c-0.1-0.4-0.2-0.9-0.2-1.2c0-0.3-0.1-1.2-0.3-2.1c-0.6-3.2-0.7-3.6-0.9-5C1.1,33.1,0.9,32.2,0.8,32.8 M266.9,32.9
			c-2.1,0.6-4,2.3-4.4,3.9c-0.1,0.3-0.2,0.6-0.3,0.7c-0.4,0.5-0.2,16.2,0.1,16.8l0.3,0.5l-0.1-0.5c-0.1-0.3-0.2-0.8-0.3-1.2
			c-0.3-1.6-0.2-14,0.1-15.3c0.6-2.4,2.3-4.1,4.5-4.6c1.6-0.4,18.5-0.3,18.6,0c0.2,0.5,0.1,3.8-0.1,4c-0.1,0.2-2.3,0.2-8.6,0.2
			c-9.2,0-9.1,0-9.7,0.9c-0.4,0.6-0.4,14.1,0,14.7c0.6,1,0.3,0.9,9.7,1l8.8,0.1v2.2v2.2l-8.8,0c-9.4,0-10.5,0-11.4-0.9
			c-0.1-0.1-0.3-0.2-0.4-0.2c-0.3,0-1.4-1.1-1.9-1.9c-0.2-0.4-0.4-0.5-0.4-0.4c0,0.8,2.1,2.6,3.9,3.3c1,0.4,18.1,0.6,19,0.3
			c0.2-0.1,0.3-0.4,0.3-2.3c0-1.9,0-2.2-0.3-2.3c-0.1-0.1-4-0.1-8.6-0.1c-9,0-9.1,0-9.7-0.9c-0.4-0.6-0.4-13.8,0-14.5
			c0.4-0.7,0.2-0.7,9.5-0.7c10.2,0,9,0.3,9-2.8v-2.1l-0.4-0.2C284.5,32.4,268.2,32.5,266.9,32.9 M362.5,32.9
			c-0.3,0.3-0.3,0.6-0.3,3.1c0,3.3,0.3,3-3.2,3h-2.6l-0.1,0.5c-0.2,0.8-0.1,3.6,0.1,4.1l0.2,0.4h2.6c1.8,0,2.7,0.1,2.8,0.2
			c0.1,0.1,0.2,2,0.2,7.2c0,6.7,0,7,0.3,7.1c0.5,0.2,4.2,0.2,4.5,0c0.1-0.1,0.2-2,0.2-7.1c0-5.2,0.1-7,0.2-7.1
			c0.1-0.1,1.2-0.2,3.9-0.2c4.5,0,4.2,0.2,4.2-2.4c0-0.9-0.1-1.9-0.2-2.1l-0.2-0.4h-3.7c-4.8,0-4.3,0.3-4.3-3.2
			c0-3.5,0.1-3.3-2.5-3.3C363,32.6,362.8,32.6,362.5,32.9 M366.8,33.2c0.1,0.2,0.2,1.5,0.2,3c0,3.3-0.4,3,4.4,3h3.8v2.2
			c0,2.7,0.3,2.5-4.2,2.5c-2.5,0-3.6,0.1-3.8,0.2c-0.1,0.1-0.2,2-0.2,7.2v7l-0.4,0.1c-0.2,0.1-1.2,0.1-2.2,0l-1.8,0l-0.1-7.1
			c0-3.9-0.1-7.2-0.2-7.3c-0.1-0.2-0.9-0.2-2.9-0.2c-3.3,0-3.1,0.1-3.1-2.3c0-2.6-0.2-2.4,2.8-2.4c1.6,0,2.7-0.1,3-0.2l0.4-0.2v-2.7
			c0-1.5,0-2.8,0.1-3C362.8,32.7,366.6,32.8,366.8,33.2 M30.6,34.9c-0.3,1.3-0.3,2,0,1.1c0.1-0.5,0.2-1,0.2-1.2
			C30.7,34.4,30.7,34.4,30.6,34.9 M17.2,36c-0.4,0.2-0.9,0.8-1.2,1.3c-0.3,0.5-0.7,1.1-0.8,1.3c-0.2,0.2-0.3,0.6-0.4,0.7
			c-0.1,0.1-0.2,0.4-0.4,0.5c-0.1,0.2-0.3,0.4-0.4,0.6c-0.3,0.6-1.8,2.9-2.4,3.9c-0.8,1.3-1.7,2.7-2,3.2c-0.4,0.8-0.9,0.3-1.1-1.1
			c-0.1-0.5-0.1-0.5-0.1,0.2c-0.1,1.7,0.7,2.1,1.5,0.8c0.3-0.5,0.8-1.3,1.2-1.9c0.4-0.5,0.7-1.2,0.8-1.3c0.1-0.2,0.5-0.8,0.8-1.3
			c0.4-0.5,0.7-1.1,0.8-1.2c0.1-0.1,0.4-0.7,0.8-1.2s0.6-1,0.6-1c0-0.1,0.3-0.5,0.6-1c0.3-0.5,0.6-0.9,0.6-0.9c0-0.3,1-1.3,1.5-1.6
			c1.5-0.7,2.5-0.2,3.9,2.2c0.3,0.4,0.6,1,0.7,1.2c0.1,0.2,0.5,0.8,0.8,1.3c0.3,0.5,1,1.6,1.5,2.5c0.5,0.9,1.2,2,1.5,2.5
			c0.3,0.5,0.7,1.1,0.8,1.3c0.2,0.2,0.4,0.6,0.5,0.9c0.5,0.9,1.1,0.7,1.1-0.3l0-0.4l-0.1,0.4c-0.2,0.7-0.6,0.6-1.2-0.4
			c-0.3-0.5-0.7-1.1-0.8-1.3c-0.1-0.2-0.5-0.8-0.8-1.3c-0.3-0.5-0.7-1.1-0.8-1.3c-0.1-0.2-0.5-0.8-0.8-1.4c-0.3-0.5-0.7-1.1-0.8-1.2
			c-0.1-0.1-0.2-0.3-0.2-0.5s-0.1-0.2-0.1-0.2s-0.2-0.2-0.3-0.4C20.9,36.2,19,34.9,17.2,36 M35.2,37.2C35,37.7,35,38.3,35,38.4
			c0,0.1,0.2-0.2,0.3-0.8c0.1-0.6,0.2-1.1,0.1-1.2C35.4,36.2,35.3,36.6,35.2,37.2 M30.1,37.6c-0.1,0.4-0.2,1.1-0.3,1.5
			c-0.2,0.9-0.5,2.3-0.8,4.2c-0.1,0.7-0.3,1.6-0.4,1.9c-0.1,0.3-0.2,0.9-0.2,1.2l0,0.7l0.1-0.8c0.1-0.4,0.2-1.1,0.3-1.5
			c0.1-0.4,0.3-1.7,0.5-2.8c0.2-1.1,0.5-2.6,0.6-3.2c0.1-0.6,0.2-1.3,0.2-1.6C30.2,36.9,30.2,36.9,30.1,37.6 M6.7,37.8
			c0.1,0.7,0.3,2,0.7,3.8c0.1,0.6,0.3,1.3,0.3,1.5c0,0.2,0.1,0,0.1-0.4c0-0.4-0.1-1-0.2-1.3c-0.1-0.3-0.3-0.9-0.3-1.3
			c0-0.4-0.2-1.2-0.3-1.9C6.8,37.5,6.7,37.3,6.7,37.8 M43.8,38c0,0.1-0.3,0.2-0.6,0.2c-0.6,0.1-2.1,1.1-2.6,1.6
			c-0.6,0.7-1.6,2.8-1.5,3.3c0,0.2,0.2-0.1,0.4-0.7c0.2-0.5,0.4-1.1,0.5-1.3c0.1-0.1,0.2-0.3,0.2-0.4c0-0.6,2.1-2.1,3.5-2.5
			c1.2-0.4,11.4-0.3,12.7,0c2.6,0.7,4.2,2.6,4.5,5.1l0.1,0.8l0-0.8c0-1.4-2-4.6-2.9-4.6c-0.1,0-0.3-0.1-0.4-0.2
			c-0.1-0.1-0.5-0.3-0.9-0.3s-0.7-0.2-0.8-0.3C55.9,37.8,43.9,37.8,43.8,38 M93.8,38.2l-0.4,0.2l0.5-0.1c0.3-0.1,3.4-0.2,7-0.2
			l6.5-0.1l0.1,0.4c0.2,0.6,0.1,3.7-0.1,4c-0.1,0.2-1,0.3-6,0.3c-6.4,0-6.6,0.1-6.6,0.9c0,0.9,0.2,1,4.3,1c2.1,0,4.3,0,4.9,0.1
			c1.1,0.1,1.1,0.1,0.5-0.1c-0.4-0.1-2.7-0.2-5.1-0.3l-4.4-0.1L95,43.7c-0.1-0.7,0.3-0.8,6.6-0.8c5.6,0,5.8,0,6-0.3
			c0.2-0.3,0.2-4,0.1-4.4C107.6,37.8,94.5,37.8,93.8,38.2 M92.5,38.7c-0.8,0.7-1.3,1.2-1.7,1.7c-0.2,0.3,0,0.1,0.5-0.4
			c0.5-0.5,0.9-1,1-1c0.1,0,0.4-0.2,0.6-0.3c0.2-0.2,0.3-0.3,0.2-0.3C93,38.4,92.7,38.5,92.5,38.7 M34.8,39.3
			c-0.5,3.1-0.7,4.1-0.8,4.5c-0.1,0.3-0.2,0.6-0.2,0.8c0,0.6,0.5-0.9,0.6-2c0.1-0.5,0.2-1.4,0.3-1.9c0.1-0.5,0.2-1.2,0.2-1.5
			l-0.1-0.6L34.8,39.3 M294.2,39.3l-0.6,0.2l0.6-0.1c1.2-0.2,12-0.3,12.2,0c0.1,0.1,0.1,1.1,0.1,2.1c0,2.6,0.5,2.4-6,2.4
			c-5.5,0-6,0.1-6.3,0.8c-0.1,0.2-0.2,3.3-0.2,7l-0.1,6.8h-2.2h-2.2l0-7.1c0-7.7,0-7.7,0.9-9.3c0.5-0.8,1.4-1.7,2.5-2.2
			c0.4-0.2,0.6-0.3,0.5-0.4c-0.7,0-2.6,1.5-3.2,2.5c-0.9,1.6-0.9,1.5-0.9,9.3l0,7.2l2.1,0c2.9,0.1,2.6,0.8,2.6-6.8
			c0-6.8,0.1-7.4,0.8-7.7c0.3-0.1,2.3-0.2,5.9-0.2c5.3,0,5.5,0,5.7-0.3c0.2-0.3,0.2-4,0.1-4.4C306.4,38.9,295.1,38.9,294.2,39.3
			 M313.5,39.4c-1.5,0.6-3.5,2.1-3.5,2.8c0,0.1-0.1,0.3-0.2,0.4c-0.1,0.1-0.2,0.3-0.2,0.5c0,0.1,0.3-0.2,0.6-0.7
			c1.1-1.8,2.3-2.6,4.1-2.9c1-0.2,10.4-0.1,11.6,0.1l0.6,0.1l-0.6-0.2C324.9,38.9,314.5,39,313.5,39.4 M336.8,39.2
			c-0.3,0.3-0.1,4.3,0.2,4.5c0.1,0.1,2.6,0.1,5.5,0.1c7.1,0,6.5-0.5,6.4,5.5l0,4.1l-0.5,0.4c-0.5,0.4-9.1,0.6-10.3,0.2
			c-0.8-0.2-1.7-2.5-1-2.5c0.1,0,0.2-0.2,0.3-0.5l0.2-0.5l-0.4,0.5c-0.6,0.8-0.6,1.7,0.1,2.5l0.6,0.6h5.1c6.8,0,6.3,0.4,6.3-5.3
			c0-5.5,0.5-5.1-6.8-5.2l-5.5-0.1v-2.1v-2.1l5.3,0c8-0.1,9.6,0.5,10.9,4.2c0.2,0.6,0.3,0.7,0.3,0.5c0-1.7-2-3.7-4.5-4.6
			C348.2,39,337,38.9,336.8,39.2 M382.5,39.3l-0.6,0.2l0.8-0.1c1-0.2,10.9-0.2,11.8,0l0.7,0.1l-0.6-0.3
			C393.7,38.9,383.4,38.9,382.5,39.3 M326.9,39.9c0.3,0.2,0.6,0.3,0.7,0.3c0.5,0,2.1,2.2,2.6,3.4c0.1,0.3,0.1,0.3,0.1,0
			c0-0.3-0.5-1.5-0.9-1.9c-0.5-0.7-1.7-1.7-1.9-1.7c-0.1,0-0.3-0.1-0.4-0.2c-0.1-0.1-0.3-0.2-0.5-0.2
			C326.5,39.6,326.6,39.7,326.9,39.9 M380.8,40c-2.6,1.8-3.2,3.4-3.2,8.8c0,3.4,0.1,4.1,0.5,5.6c0.3,1.3,2.9,4.1,3.3,3.6
			c0,0-0.4-0.4-0.9-0.7c-0.5-0.4-1-0.7-1-0.8s-0.3-0.5-0.6-0.9c-0.8-1.1-1.1-3-1.1-6.9c0-5.2,0.8-7.1,3.4-8.7
			c0.4-0.2,0.5-0.4,0.4-0.4S381.1,39.8,380.8,40 M395.9,40c1.6,0.8,2.8,2.4,3.1,4.1l0.1,0.6l0-0.7c0-0.4-0.1-0.8-0.2-0.9
			c-0.1-0.1-0.2-0.3-0.2-0.4c0-0.3-1.1-1.8-1.6-2.1c-0.6-0.4-1.6-1-1.8-1C395.2,39.6,395.4,39.8,395.9,40 M90.1,41.8
			c-1,2.5,1.1,7.2,3.2,7.1c0.2,0,0.2,0-0.1-0.1c-2.2-0.7-3.9-4.4-3-6.7c0.1-0.4,0.2-0.7,0.2-0.8C90.4,41.1,90.3,41.4,90.1,41.8
			 M50.1,42.5c4.9,0.1,5.3,0.2,5.9,0.9c0.4,0.5,0.3,1.9-0.3,2.5l-0.5,0.5l-4.6,0.1c-2.9,0-4.7,0.1-4.8,0.2c-0.4,0.3-0.3,4.2,0.1,4.5
			c0.7,0.4,10.1,0.1,11-0.3c0.4-0.2,0.9-0.4,0.9-0.4c0.3,0,2.1-2,2.4-2.6c0.2-0.4,0.4-0.8,0.5-1.1c0.1-0.2,0.2-0.8,0.2-1.3l0-0.9
			l-0.1,0.8c0,0.5-0.1,0.9-0.2,1c-0.1,0.1-0.2,0.5-0.3,0.8c-0.3,1-1.8,2.6-3.1,3.3l-1.1,0.5l-4.8,0.1c-6,0.1-5.6,0.3-5.6-2.1
			c0-2.5-0.4-2.3,5-2.4l4.6-0.1l0.5-0.5c0.8-0.8,0.8-2.2-0.1-3c-0.8-0.7-1-0.8-6-0.7l-4.4,0L50.1,42.5 M44.2,43.1
			c-0.3,0.3-0.6,0.6-0.6,0.7c0,0.1,0.2,0,0.4-0.3c0.2-0.2,0.6-0.6,0.9-0.7c0.3-0.2,0.4-0.3,0.2-0.3C45,42.6,44.6,42.8,44.2,43.1
			 M18.2,43.1C18.2,43.2,18.2,43.2,18.2,43.1c0.2-0.1,0.7,0.4,1,1c0.1,0.3,0.5,1,0.9,1.5c0.4,0.5,0.9,1.4,1.1,1.9
			c0.3,0.5,0.5,0.9,0.6,0.9c0.1,0,0.2,0.2,0.3,0.5c0.1,0.3,0.5,0.9,0.8,1.5c0.4,0.5,0.7,1.2,0.8,1.3c0.1,0.2,0.3,0.6,0.5,0.9
			c0.4,0.7,1.4,2.3,1.7,2.7c0.1,0.2,0.5,0.8,0.9,1.5c1.8,2.9,4.7,2.1,5.2-1.6c0.1-0.6,0.2-1.3,0.3-1.7c0.1-0.4,0.2-0.9,0.2-1.2
			c0-0.6-0.6,2.1-0.6,2.8c0,1.8-1.1,3-2.6,3c-1.4,0-1.9-0.5-3.3-3c-0.1-0.3-0.8-1.3-1.4-2.2c-0.6-1-1.2-1.9-1.3-2.2
			c-0.1-0.2-0.3-0.5-0.4-0.6c-0.1-0.1-0.2-0.3-0.2-0.4s-0.3-0.5-0.6-1c-0.3-0.5-0.6-0.9-0.6-0.9c0-0.1-0.2-0.5-0.5-1
			c-0.3-0.5-0.6-1-0.7-1.2C18.8,43.1,18.5,42.6,18.2,43.1 M17.8,43.7c-0.1,0.2-0.5,0.8-0.8,1.3c-0.3,0.5-1.2,2-2,3.2
			c-0.8,1.3-1.5,2.4-1.6,2.6c-0.1,0.1-0.4,0.7-0.8,1.2c-0.4,0.5-0.7,1.2-0.8,1.4c-0.1,0.2-0.2,0.5-0.3,0.5c-0.1,0-0.5,0.7-0.9,1.4
			c-1.4,2.3-1.7,2.7-3,2.7c-1.6,0-2.2-0.8-2.7-3.4c0-0.3-0.1-0.2-0.1,0.2c-0.1,2.3,1.9,4.2,3.6,3.4C9,58,9.3,57.8,9.8,57.1
			c0.2-0.3,1-1.5,1.1-1.8c0.1-0.1,0.4-0.7,0.8-1.2c0.4-0.5,0.7-1.2,0.8-1.3c0.1-0.2,0.3-0.5,0.5-0.8c0.2-0.2,0.7-1.1,1.2-2
			s1-1.7,1.2-2c0.2-0.2,0.4-0.6,0.5-0.9c0.1-0.2,0.4-0.7,0.6-1c0.2-0.3,0.5-0.8,0.6-1c0.3-0.6,0.6-1.1,0.9-1.4
			c0.1-0.1,0.2-0.3,0.1-0.4C18.1,43.4,17.9,43.5,17.8,43.7 M309.1,44.6c-0.4,1.7-0.3,8.3,0.1,9.3c0.3,0.6,0.3,0.6,0.2,0.1
			c-0.2-1.1-0.3-8-0.1-9.2C309.6,43.1,309.5,43.1,309.1,44.6 M7.9,44.1c0.1,0.9,0.4,2,0.4,1.4c0-0.2-0.1-0.8-0.2-1.2
			C7.8,43.5,7.8,43.5,7.9,44.1 M38.9,47.9c0,2.4,0,3.4,0.1,2.2c0-1.2,0-3.2,0-4.4C38.9,44.5,38.9,45.5,38.9,47.9 M314.2,44.1
			c-0.8,0.8-0.8,0.8-0.7,5.1l0.1,3.8l0.4,0.4c0.6,0.6,1.3,0.7,5.8,0.7l4,0l0.1,0.4c0.1,0.2,0.1,1.2,0,2.1l0,1.8l-4.6,0
			c-6.3,0.1-7.8-0.5-9.4-3.3c-0.2-0.4-0.4-0.7-0.4-0.6c0,1.1,2,3,3.9,3.7c1,0.4,10,0.6,10.6,0.2c0.2-0.1,0.2-0.7,0.2-2.3l0-2.2
			l-4.6-0.1c-6.2-0.1-5.7,0.3-5.8-4.9c-0.1-4,0-4.3,0.8-5l0.5-0.4h4.8c5.9,0,6.4,0.2,6,2.4c-0.2,1.2-0.6,1.3-5.6,1.4
			c-2.4,0-4.5,0.1-4.6,0.2c-0.4,0.3-0.3,3.5,0.1,4l0.3,0.4l4.4,0c3,0,4.6-0.1,5.1-0.2c0.6-0.2-0.2-0.2-4.3-0.2
			c-6,0.1-5.5,0.3-5.4-2.2l0-1.8l4.5-0.1c5.4-0.1,5.8-0.2,5.8-2.1c0-2-0.4-2.1-6.3-2.1h-4.9L314.2,44.1 M383.3,43.8
			c-0.9,0.6-1,0.8-1,5.1v3.9l0.6,0.6l0.6,0.6l4.6,0.1l4.6,0.1v2.2v2.2l-4.6,0c-3.6,0-4.8-0.1-5.3-0.2c-1-0.4-1.3-0.3-0.4,0.1
			c0.7,0.3,1.2,0.3,5.6,0.3l4.8,0v-2.2v-2.2l-4.6-0.1c-2.5-0.1-4.6-0.1-4.6-0.1c0,0-0.3-0.3-0.5-0.6l-0.5-0.5v-3.9
			c0-5.6-0.4-5.2,6.1-5.2c5.6,0,5.9,0.1,5.9,2c0,1.8-0.4,1.9-5.9,1.9c-2.9,0-4.1,0.1-4.2,0.2c-0.4,0.4-0.3,3.7,0.1,4.1
			c0.4,0.4,8.5,0.5,9.8,0.1c0.6-0.2-0.2-0.2-4.3-0.2c-6,0.1-5.5,0.3-5.4-2.2l0-1.8l4.4-0.1c4.9-0.1,5-0.1,5.6-1.2
			c0.5-0.9,0.1-2.2-0.7-2.7C393.1,43.4,384,43.4,383.3,43.8 M43.6,48.1c0,2.1,0,2.9,0.1,1.9c0-1,0-2.7,0-3.8
			C43.6,45.1,43.6,46,43.6,48.1 M330.4,45.6c0,0.7,0,1,0.1,0.6c0-0.4,0-1,0-1.3C330.4,44.6,330.4,44.9,330.4,45.6 M353.6,48.9
			c0,2.5,0,3.6,0.1,2.3c0-1.3,0-3.3,0-4.6C353.6,45.3,353.6,46.4,353.6,48.9 M105.6,44.9c1.2,0.4,3.2,2,3.2,2.4
			c0,0.1,0.1,0.3,0.2,0.4c0.5,0.5,0.9,2.4,0.9,3.7c0,3.4-2.1,5.8-5.7,6.6c-0.2,0-0.1,0.1,0.2,0.1c1,0,3-1,3.9-2
			c0.7-0.7,0.9-1.1,1.5-2.6c0.3-0.7,0.3-3.9,0-4.5c-0.1-0.2-0.4-0.7-0.6-1.1c-0.7-1.4-2.8-3.2-3.8-3.1
			C105.3,44.7,105.3,44.8,105.6,44.9 M399.2,45.6c0,0.5,0,0.8,0.1,0.5c0-0.3,0-0.8,0-1C399.2,44.8,399.2,45.1,399.2,45.6 M33.6,45.9
			c-0.3,2.1-0.7,4-0.8,4.4c-0.1,0.3-0.2,0.7-0.1,1c0,0.7,0.2-0.1,0.5-2.2c0.1-0.7,0.3-1.7,0.4-2.1c0.1-0.4,0.2-1,0.1-1.3
			C33.7,45.1,33.7,45.2,33.6,45.9 M3.2,45.8c0,0.3,0.1,0.8,0.2,1.2c0.3,1,0.3,0.2,0-0.9C3.2,45.5,3.2,45.4,3.2,45.8 M336.7,45.9
			c-3.4,1-5.2,4.7-4.2,8.5c0.3,1.1,1.9,3.2,2.4,3.2c0.1,0,0.3,0.1,0.4,0.2c0.1,0.1,0.3,0.2,0.4,0.2c0.1,0,0-0.2-0.2-0.3
			c-0.2-0.2-0.4-0.3-0.5-0.3c-0.3,0-1.6-1.6-2-2.2c-1-1.9-0.7-5.6,0.6-6.9c0.1-0.1,0.2-0.3,0.2-0.3c0.1-0.3,1.6-1.3,2.4-1.7
			c1.2-0.5,10.6-0.6,10.8-0.1c0.2,0.5,0.1,3.5-0.1,3.7c-0.1,0.1-1.4,0.2-4.5,0.2c-3.7,0-4.3,0-4.6,0.3l-0.3,0.3l0.3-0.1
			c0.2-0.1,2.3-0.2,4.7-0.2c3.6-0.1,4.4-0.1,4.5-0.3c0.2-0.4,0.2-3.7,0-4C346.9,45.7,337.4,45.6,336.7,45.9 M399,47
			c-0.1,1.3-1.6,3.4-3.2,4.2c-0.4,0.2-0.6,0.4-0.6,0.5c0.2,0.1,1.3-0.6,2.1-1.3C398.2,49.6,399.2,47.7,399,47
			C399.1,46.7,399,46.7,399,47 M330.2,47.4c-0.1,1.1-1.8,3.2-3.2,4c-0.4,0.2-0.6,0.4-0.5,0.4C327.6,51.7,330.5,48.4,330.2,47.4
			C330.2,47.2,330.2,47.2,330.2,47.4 M3.8,49c0.1,1.3,0.5,3,0.5,2.2c0-0.3-0.1-1-0.2-1.4c-0.1-0.5-0.3-1-0.3-1.2
			C3.7,48.3,3.7,48.5,3.8,49 M93.8,49.1c0.3,0.3,2.1,0.5,6.5,0.5c4.6,0,4.5,0,4.7,1.4c0.2,2,0.4,1.9-7.6,1.9c-8.1,0-7.3-0.3-7.3,2.8
			c0,2.1,0.1,2.3,0.4,2.3c0.3,0,0.3,0,0-0.1c-0.4-0.3-0.4-4,0-4.4c0.3-0.2,1-0.3,6.9-0.3c6.2,0,6.6,0,7.1-0.3c1-0.6,1.1-2.2,0.2-3.1
			c-0.4-0.4-0.4-0.4-4.5-0.4c-3.9,0-5.5-0.1-6.3-0.4C93.6,48.9,93.6,48.9,93.8,49.1 M4.3,52.4c0,0.3,0.1,0.9,0.2,1.2
			c0.3,0.7,0.3,0.2,0-0.9C4.3,51.8,4.3,51.8,4.3,52.4 M43.7,52.2c0,1.1,1.5,1.4,6.3,1.4h4.2v2.2c0,1.6-0.1,2.2-0.2,2.2
			C53.8,58,53.9,58,54.1,58c0.4-0.1,0.6-4.2,0.2-4.5c-0.1-0.1-2.1-0.1-4.3-0.1c-4.8,0-5,0-5.7-0.8C43.9,52.3,43.7,52.1,43.7,52.2
			 M39,52.8c0,1.2,1.8,3.7,3.2,4.4c1.3,0.6,1.8,0.8,2.3,0.8c0.3,0,0.4,0,0.1-0.1c-2.9-0.7-4.8-2.5-5.5-5.3
			C39.1,52.4,39,52.5,39,52.8 M353.3,53.7c-0.1,1.3-1.8,3.4-3.1,4c-0.4,0.2-0.8,0.4-1,0.5c-0.6,0.3-11.1,0.3-12.1,0
			c-1.1-0.4-1.4-0.3-0.4,0.1c1,0.4,12.1,0.4,12.6,0c0.1-0.1,0.4-0.2,0.6-0.3C351.4,57.7,353.6,54.9,353.3,53.7
			C353.4,53.6,353.4,53.6,353.3,53.7 M85.5,54.8c-1,1.6-2.6,2.7-4.6,3.1c-0.2,0-0.1,0.1,0.2,0c1.7-0.1,5-2.5,4.7-3.4
			C85.8,54.4,85.6,54.6,85.5,54.8"/>
	</g>
</g>
<g id="Livello_2">
</g>
</svg>
