<?xml version="1.0" encoding="utf-8"?>
<!-- Generator: Adobe Illustrator 22.0.0, SVG Export Plug-In . SVG Version: 6.00 Build 0)  -->
<svg version="1.1" id="Livello_1" xmlns="http://www.w3.org/2000/svg" xmlns:xlink="http://www.w3.org/1999/xlink" x="0px" y="0px"
	 viewBox="0 0 119.6 24" style="enable-background:new 0 0 119.6 24;" xml:space="preserve">
<style type="text/css">
	.st0{fill:#15D4AC;}
</style>
<g>
	<path class="st0" d="M54.8,1.1c-0.1,0-0.2,0.1-0.3,0.1s-0.1,0-0.1,0.1c0,0-0.1,0.1-0.1,0.1c-0.2,0.1-9.8,9.7-9.8,9.8
		c0,0.1,0,0.1-0.1,0.1c0,0-0.1,0.1-0.1,0.2c0,0.1-0.1,0.2-0.1,0.3c0,0.1-0.1,0.2-0.1,0.3s0,0.2,0.1,0.3c0,0.1,0.1,0.2,0.1,0.3
		c0,0.1,0.1,0.2,0.1,0.2c0,0,0.1,0.1,0.1,0.1c0,0.1,9.5,9.6,9.6,9.6c0,0,0.1,0,0.1,0.1c0,0,0.1,0.1,0.1,0.1c0,0,0.1,0.1,0.1,0.1
		c0.1,0.1,0.1,0.1,0.2,0.1c0.1,0,0.1,0,0.1,0.1c0.3,0.3,1.3,0,1.7-0.4c0.2-0.2,0.2-0.2,0.2-0.3c0,0,0.1-0.1,0.1-0.2
		c0.2-0.2,0.2-1.2,0-1.4c-0.1-0.1-0.1-0.2-0.1-0.2s0-0.1-0.1-0.1c0,0-0.1,0-0.1-0.1c0-0.1-0.7-0.8-0.8-0.8c0,0-0.1,0-0.1-0.1
		c0-0.1-0.2-0.3-0.3-0.3c0,0-0.1,0-0.1-0.1c0-0.1-0.2-0.3-0.3-0.3c0,0-0.1,0-0.1-0.1s-0.1-0.1-0.2-0.2c-0.1-0.1-0.2-0.1-0.2-0.2
		s0-0.1-0.1-0.1c-0.1,0-0.3-0.2-0.3-0.3c0,0,0-0.1-0.1-0.1c-0.1,0-0.3-0.2-0.3-0.3c0,0,0-0.1-0.1-0.1c-0.1,0-5.8-5.7-5.8-5.8
		c0-0.1,1.2-1.3,4.1-4.2c4.5-4.5,4.2-4.2,4.3-4.4c0-0.1,0.1-0.1,0.1-0.2c0.1-0.1,0.1-1.2,0-1.4c-0.1-0.1-0.1-0.2-0.1-0.2
		s0-0.1-0.1-0.1c0,0-0.1-0.1-0.1-0.1c0,0,0-0.1-0.1-0.1c0,0-0.1,0-0.1-0.1c0,0-0.1-0.1-0.2-0.1c-0.1,0-0.1-0.1-0.1-0.1
		c0,0-0.1-0.1-0.1-0.1S55.5,1,55.5,1C55.3,1,55,1,54.8,1.1"/>
</g>
<g>
	<path class="st0" d="M11.7,2.3c0,0.1,0.1,0.4,0.2,0.5C11.9,3,12,3.6,12,4.2c0.1,0.5,0.2,1.1,0.3,1.4c0.1,0.2,0.2,0.7,0.2,1.1
		c0,0.5,0.1,0.9,0.2,1.1c0.1,0.2,0.2,0.8,0.2,1.3c0.1,0.6,0.2,1.2,0.3,1.5c0.1,0.2,0.2,0.7,0.2,1.1s0.1,0.8,0.2,1.1
		c0.1,0.2,0.2,0.8,0.2,1.4c0.2,0.4,0.3,1,0.5,1.2c0.2,0.2,0.2,0.8,0.2,1.2s0.1,0.9,0.2,1.1s0.2,0.8,0.2,1.3c0.1,0.5,0.2,1.1,0.2,1.4
		c0.1,0.2,0.2,0.5,0.2,0.8c0,1.6,2.8,1.3,3.3-0.3c0.1-0.2,0.2-0.3,0.2-0.4c0.1,0,0.2-0.2,0.2-0.2s0.2-0.5,0.5-0.8
		c0.2-0.3,0.5-0.8,0.5-0.9s0.2-0.3,0.2-0.3c0.1,0,0.2-0.1,0.2-0.2c0-0.1,0.2-0.4,0.4-0.8c0.2-0.3,0.5-0.8,0.5-0.9
		c0.2-0.4,0.3-0.5,0.8-1.4c0.2-0.3,0.5-0.7,0.5-0.8s0.2-0.3,0.2-0.3c0.1,0,0.2-0.1,0.2-0.2c0-0.1,0.1-0.2,0.2-0.4
		c0.1-0.1,0.2-0.3,0.3-0.5c0.1-0.2,0.2-0.4,0.3-0.4c0.1,0,0.2-0.1,0.2-0.2c0-0.3,1.1-1.8,1.3-1.8s0.8,0.5,0.8,0.8
		c0,0.1,0.1,0.2,0.2,0.2c0.1,0,0.2,0.2,0.3,0.4c0.1,0.2,0.3,0.6,0.5,0.8c0.2,0.2,0.3,0.5,0.4,0.8c0.1,0.2,0.2,0.4,0.2,0.4
		s0.2,0.2,0.2,0.3c0.1,0.2,0.5,1,0.7,1.1c0.1,0.1,0.5,0.8,0.6,1.1c0.1,0.2,0.2,0.4,0.3,0.4c0.1,0.1,0.2,0.2,0.2,0.3s0.1,0.3,0.2,0.3
		c0.1,0.1,0.2,0.2,0.2,0.2s0.1,0.2,0.2,0.4c0.1,0.1,0.2,0.3,0.3,0.5c0.4,0.8,0.5,1,0.7,1c0.1,0,0.2,0.2,0.2,0.4s0.2,0.4,0.2,0.5
		c0.1,0.1,0.2,0.2,0.2,0.2c0,0.1,0.2,0.5,0.5,0.8l0.5,0.7h0.8c0.9,0,1.5-0.4,1.5-0.9c0-0.2,0.1-0.4,0.2-0.6c0.1-0.2,0.2-0.8,0.2-1.4
		c0.1-0.6,0.2-1.1,0.3-1.3s0.2-0.5,0.2-1.1c0-0.5,0.1-1,0.2-1.3c0.1-0.2,0.2-0.8,0.2-1.4c0.1-0.5,0.2-1,0.2-1.1
		c0.1-0.1,0.2-0.7,0.2-1.3c0.1-0.6,0.2-1.2,0.2-1.3c0.1-0.1,0.2-0.5,0.2-0.9c0-0.4,0.1-0.9,0.2-1.2c0.1-0.2,0.2-1,0.3-1.6
		c0.1-0.6,0.2-1.1,0.2-1.2c0.1,0,0.2-0.4,0.2-0.8s0.1-0.9,0.2-1.2c0.1-0.3,0.2-0.7,0.2-1l0.1-0.5h-1.6h-1.6l-0.2,0.7
		c-0.1,0.4-0.2,1.1-0.3,1.5c-0.1,0.5-0.2,1.1-0.3,1.5c-0.1,0.3-0.2,1-0.2,1.5c0,0.5-0.2,0.9-0.2,1.1c-0.1,0.2-0.2,0.6-0.2,1.1
		c-0.1,0.5-0.2,1.1-0.2,1.3c-0.1,0.2-0.2,0.8-0.2,1.4c0,0.5-0.2,1-0.2,1.1c-0.1,0.1-0.2,0.6-0.2,1.1c-0.1,0.5-0.2,0.9-0.2,1
		c-0.2,0.2-0.7-0.1-0.8-0.5c-0.1-0.2-0.2-0.4-0.2-0.4c-0.1,0-0.2-0.2-0.2-0.3s-0.3-0.5-0.5-0.9c-0.2-0.3-0.5-0.7-0.5-0.8
		c0-0.1-0.1-0.2-0.2-0.2c-0.1,0-0.2-0.2-0.3-0.4c-0.1-0.2-0.3-0.5-0.5-0.8c-0.2-0.2-0.3-0.5-0.4-0.7c-0.1-0.2-0.2-0.4-0.2-0.5
		c-0.2-0.3-1.1-1.7-1.1-1.8s-0.5-0.8-0.8-1.1c-0.1-0.1-0.2-0.2-0.2-0.3c0-0.1-0.2-0.4-0.5-0.7c-1-1.1-2.5-0.8-3.3,0.9
		C22.4,6.9,22.3,7,22.2,7c-0.1,0-0.2,0.1-0.2,0.2c0,0.2-0.2,0.3-0.2,0.5c-0.1,0.2-0.2,0.3-0.2,0.4c0,0.1-0.1,0.2-0.2,0.2
		c-0.1,0.1-0.2,0.2-0.2,0.3c0,0.2-0.1,0.3-0.2,0.5c-0.2,0.2-0.2,0.3-0.2,0.4c0,0.1-0.3,0.5-0.6,1c-0.7,1.1-0.8,1.3-1.1,1.8
		c-0.1,0.2-0.2,0.4-0.3,0.4c-0.2,0.1-0.4,0.5-0.6,1.1C18.2,13.9,18,14,17.9,14s-0.2,0.2-0.2,0.4c0.1,1.4-0.5,0.7-0.5-0.7
		c0-0.4-0.1-0.8-0.2-1s-0.2-0.7-0.2-1.1c0,0,0-0.1,0-0.2c-0.1-0.6-0.3-1.2-0.4-1.7c-0.1-0.3-0.1-0.6-0.1-0.9c0-0.5-0.1-0.8-0.2-1
		c-0.2-0.2-0.2-0.5-0.2-1c0-0.4-0.1-0.9-0.2-1.2c-0.1-0.2-0.2-0.9-0.3-1.5c-0.1-0.5-0.2-1.1-0.2-1.2C15,2.8,15,2.6,15,2.3V2h-1.6
		C11.9,2,11.7,2.1,11.7,2.3"/>
</g>
<path class="st0" d="M87.8,1.7c-0.3,0-0.7,0.2-0.8,0.2s-0.2,0.2-0.4,0.2c-0.7,0-2.1,1.9-2.4,3.3c-0.2,1.1-0.4,11.8-0.2,11.8
	c0.1,0,0.2,0.4,0.2,1c0.1,0.7,0.2,1.1,0.3,1.2c0.2,0.2,0.2,0.4,0.2,0.5c0,0.2,1.1,1.2,1.5,1.4c0.2,0.1,0.4,0.2,0.5,0.3
	c0.1,0.2,0.3,0.2,0.6,0.2c0.2,0,0.6,0.1,0.8,0.2c0.3,0.2,1.5,0.2,7.4,0.2h7.2v-2.3V18h-6.9c-7.4,0-7.3,0-7.8-0.7l-0.3-0.5v-5.6
	c0-7.9-1-7.1,8.2-7.1h6.8V2.8c0-1.2,0-1.5-0.2-1.5c-0.1-0.1-13.3-0.1-14.5,0"/>
<g id="Livello_2_1_">
</g>
<g>
	<path class="st0" d="M67.6,0.7c-0.2-0.1-0.5-0.1-0.6-0.1c-0.1,0-0.2,0.1-0.3,0.1s-0.1,0-0.1,0.1c0,0-0.1,0.1-0.1,0.1
		c-0.1,0-0.1,0.1-0.2,0.1c0,0-0.1,0.1-0.1,0.1C66.1,1,66.1,1,66.1,1c0,0.1,0,0.1-0.1,0.1c0,0-0.1,0.1-0.1,0.1s-0.1,0.1-0.1,0.2
		c-0.1,0.2-0.2,1.3,0,1.4c0.1,0,0.1,0.1,0.1,0.2c0.1,0.2-0.3-0.2,4.3,4.4c3,3,4.1,4.1,4.1,4.2c0,0.1-5.7,5.8-5.8,5.8
		c0,0-0.1,0-0.1,0.1c0,0.1-0.2,0.3-0.3,0.3c0,0-0.1,0-0.1,0.1c0,0.1-0.2,0.3-0.3,0.3c0,0-0.1,0-0.1,0.1s-0.1,0.1-0.2,0.2
		c-0.1,0.1-0.2,0.1-0.2,0.2c0,0,0,0.1-0.1,0.1c-0.1,0-0.3,0.2-0.3,0.3c0,0,0,0.1-0.1,0.1c-0.1,0-0.3,0.2-0.3,0.3c0,0,0,0.1-0.1,0.1
		c-0.1,0-0.7,0.7-0.8,0.8C66,20,66,20,66,20c0,0-0.1,0-0.1,0.1s-0.1,0.1-0.1,0.2c-0.2,0.2-0.2,1.3,0,1.4c0.1,0.1,0.1,0.1,0.1,0.2
		c0,0.1,0,0.1,0.2,0.3c0.4,0.4,1.4,0.6,1.7,0.4c0,0,0.1-0.1,0.1-0.1c0.1,0,0.1,0,0.2-0.1c0,0,0.1-0.1,0.1-0.1s0.1,0,0.1-0.1
		c0,0,0-0.1,0.1-0.1c0.1,0,9.6-9.5,9.6-9.6c0,0,0-0.1,0.1-0.1c0.1,0,0.1-0.1,0.1-0.2c0-0.1,0.1-0.3,0.1-0.3c0-0.1,0.1-0.2,0.1-0.3
		s0-0.2-0.1-0.3c0-0.1-0.1-0.2-0.1-0.3c0-0.1-0.1-0.2-0.1-0.2c0,0-0.1-0.1-0.1-0.1c0-0.1-9.6-9.7-9.8-9.8c-0.1,0-0.1-0.1-0.1-0.1
		c0,0-0.1-0.1-0.1-0.1S67.7,0.7,67.6,0.7"/>
</g>
</svg>
