<svg width="580" height="400" xmlns="http://www.w3.org/2000/svg">
 <!-- Created with Method Draw - http://github.com/duopixel/Method-Draw/ -->
 <g>
  <title>background</title>
  <rect fill="#fff" id="canvas_background" height="402" width="582" y="-1" x="-1"/>
  <g display="none" overflow="visible" y="0" x="0" height="100%" width="100%" id="canvasGrid">
   <rect fill="url(#gridpattern)" stroke-width="0" y="0" x="0" height="100%" width="100%"/>
  </g>
 </g>
 <g>
  <title>Layer 1</title>
  <path id="svg_15" d="m256.139931,134.785385l-54.852989,56.005207l54.85808,55.994785l19.953136,-20.364611l-34.91465,-35.630181l34.907395,-35.630211l-19.950972,-20.374996l0,0.000007zm80.281594,0l-19.938684,20.36983l34.907519,35.630166l-34.907519,35.625824l19.938684,20.364506l54.865394,-55.999914l-54.865394,-55.990412z" stroke-opacity="null" stroke-width="1.5" stroke="#000" fill="#ffffff"/>
  <path id="svg_16" d="m533.688841,194.246593l16.417942,-8.669605c-0.322746,-3.212184 -0.9465,-6.328201 -1.726816,-9.391398l-18.237987,-2.521506c-1.57856,-3.796645 -3.663106,-7.317927 -6.113446,-10.550299l6.952076,-17.070894c-2.285969,-2.225863 -4.754726,-4.255206 -7.35313,-6.122503l-15.486418,9.706753c-3.631582,-1.90674 -7.544262,-3.354934 -11.651642,-4.285035l-5.59655,-17.310641c-1.587235,-0.119667 -3.174013,-0.246097 -4.792688,-0.246097s-3.200965,0.12351 -4.792973,0.246097l-5.541106,17.157307c-4.217482,0.900296 -8.216555,2.365311 -11.941484,4.295586l-15.245243,-9.563968c-2.595116,1.867298 -5.063769,3.896645 -7.349557,6.122503l6.760757,16.599364c-2.635015,3.37177 -4.841118,7.092037 -6.498099,11.101598l-17.662231,2.438823c-0.777023,3.058894 -1.40404,6.171608 -1.723464,9.391015l15.852286,8.373888c0.179597,4.40805 0.911585,8.68017 2.207775,12.70318l-11.958111,13.201061c1.391045,2.880612 2.939748,5.674193 4.731346,8.295106l17.605622,-3.773577c2.886575,3.135753 6.175338,5.883183 9.803824,8.155212l-0.667319,17.984601c2.89143,1.302004 5.895671,2.391677 8.991636,3.262673l11.138069,-14.294168c1.976238,0.251897 3.977442,0.421557 6.0186,0.421557c2.211215,0 4.373665,-0.199446 6.501294,-0.491301l11.196068,14.373466c3.100826,-0.86999 6.100491,-1.959604 8.991626,-3.261681l-0.680196,-18.307581c3.458423,-2.235437 6.59443,-4.909822 9.359171,-7.929288l18.063486,3.869764c1.791608,-2.620511 3.340522,-5.411118 4.731066,-8.294139l-12.345423,-13.633281c1.18592,-3.810586 1.848379,-7.833194 2.041241,-11.982589l-0.000005,0zm-27.287839,20.825147l-7.784031,5.059353l-4.787699,-7.344288c-2.490632,0.956486 -5.172082,1.538086 -7.998764,1.538086c-12.345369,0 -22.35014,-9.992827 -22.35014,-22.316699c0,-12.324373 10.004771,-22.313333 22.35014,-22.313333c12.342144,0 22.350572,9.98896 22.350572,22.313333c0,6.158604 -2.49881,11.725918 -6.537958,15.765308l4.757881,7.29824z" stroke-opacity="null" stroke-width="1.5" stroke="#000" fill="#ffffff"/>
  <path transform="rotate(6.475278854370117 119.12002563476531,192.32833862304682) " id="svg_17" d="m168.213818,122.931008l-17.457893,-11.580432c-4.404682,-2.918913 -10.208615,-1.51404 -12.98402,3.135532l-6.881142,11.558824l33.397688,22.137969l6.88657,-11.553459c2.764872,-4.655108 1.4453,-10.786025 -2.961202,-13.698434l0,0zm-96.754356,102.976909l33.399508,22.137741l54.435661,-91.456081l-33.415407,-22.143521l-54.419767,91.461856l0.000006,0.000006zm-5.101768,28.126825l-0.737675,20.7936l17.431112,-9.730457l16.198455,-9.026372l-32.221575,-21.370495l-0.670311,19.333729l0,0l-0.000006,-0.000006z" stroke-opacity="null" stroke-width="1.5" stroke="#000" fill="#ffffff"/>
 </g>
</svg>